<svg width="32" height="32" viewBox="0 0 32 32" fill="none" xmlns="http://www.w3.org/2000/svg">
  <defs>
    <linearGradient id="earthGradient" x1="0%" y1="0%" x2="100%" y2="100%">
      <stop offset="0%" style="stop-color:#10b981;stop-opacity:1" />
      <stop offset="50%" style="stop-color:#059669;stop-opacity:1" />
      <stop offset="100%" style="stop-color:#047857;stop-opacity:1" />
    </linearGradient>
  </defs>
  <circle cx="16" cy="16" r="16" fill="url(#earthGradient)"/>
  <path d="M16 6C12 6 9 9 9 13C9 17 12 20 16 20C20 20 23 17 23 13C23 9 20 6 16 6Z" fill="white" opacity="0.9"/>
  <path d="M16 8C13 8 11 10 11 13C11 16 13 18 16 18C19 18 21 16 21 13C21 10 19 8 16 8Z" fill="white"/>
  <path d="M14 12L16 10L18 12L16 14L14 12Z" fill="#10b981"/>
  <path d="M16 10L18 12L16 14L14 12L16 10Z" fill="#059669"/>
</svg>